<?xml version="1.0" encoding="iso-8859-1"?>
<!-- Uploaded to: SVG Repo, www.svgrepo.com, Generator: SVG Repo Mixer Tools -->
<!DOCTYPE svg PUBLIC "-//W3C//DTD SVG 1.1//EN" "http://www.w3.org/Graphics/SVG/1.1/DTD/svg11.dtd">
<svg fill="#000000" version="1.1" id="Capa_1" xmlns="http://www.w3.org/2000/svg" xmlns:xlink="http://www.w3.org/1999/xlink" 
	 width="800px" height="800px" viewBox="0 0 32 32" xml:space="preserve">
<g>
	<path d="M0,0v32h32V0H0L0,0z M26.104,16.535c-1.617,3.416-5.701,5.308-9.482,4.177c0.312,2.241-0.48,4.97-2.933,5.802
		c-1.17,0.396-2.446,0.219-3.558-0.265c-1.209-0.522-0.562-2.58-0.661-3.618c0.737,0.155,1.443,0.903,2.243,0.551
		c0.688-0.307,0.707-1.783,0.731-2.4c0.086-2.067-0.069-4.163-0.069-6.233c0-0.692,0-1.387,0-2.079c0-0.285,0-0.57,0-0.854
		c0-0.354,0.021-0.301,0.345-0.356c0.867-0.147,1.781-0.103,2.655-0.034c0.25,0.021,0.497,0.045,0.745,0.074
		c0.314,0.039,0.277-0.031,0.277,0.348c0,0.619,0,1.236,0,1.854c0,1.236,0,2.473,0,3.709c0,0.476,0.39,0.457,0.828,0.562
		c0.26,0.062,0.521,0.105,0.787,0.133c0.475,0.048,0.955,0.033,1.426-0.049c0.805-0.146,1.562-0.496,2.164-1.028
		c1.146-1.017,1.416-2.569,1.002-3.976c-1-3.392-5.47-4.764-8.766-3.969c-3.542,0.855-6.372,4.689-3.7,7.784
		c-0.8,0.684-1.488,1.493-2.422,2.021c-0.226,0.129-0.462,0.236-0.707,0.324c-0.138-0.143-0.266-0.293-0.384-0.449
		c-0.245-0.322-0.451-0.67-0.622-1.033c-0.77-1.627-0.893-3.527-0.568-5.271c0.521-2.839,2.397-4.944,5.158-6.039
		c4.598-1.819,11.191-1.075,14.439,2.8C26.77,11.081,27.256,14.103,26.104,16.535z"/>
</g>
</svg>