<?xml version="1.0" encoding="UTF-8"?>
<svg version="1.1" xmlns="http://www.w3.org/2000/svg" width="1080" height="1080">
<path d="M0 0 C356.4 0 712.8 0 1080 0 C1080 356.4 1080 712.8 1080 1080 C723.6 1080 367.2 1080 0 1080 C0 723.6 0 367.2 0 0 Z " fill="#FEFEFE" transform="translate(0,0)"/>
<path d="M0 0 C1.30864014 -0.00817749 2.61728027 -0.01635498 3.96557617 -0.02478027 C8.27789303 -0.05079043 12.59021855 -0.06628889 16.90258789 -0.08056641 C18.39828558 -0.08593513 19.89398324 -0.09131264 21.38968086 -0.09669876 C27.62046314 -0.11829857 33.85124305 -0.13702769 40.08205318 -0.14832115 C48.95283547 -0.16451642 57.82317696 -0.19761944 66.69379324 -0.254722 C72.96341826 -0.2936782 79.23292668 -0.31298401 85.50266939 -0.31824172 C89.23126444 -0.3218609 92.95938719 -0.33350843 96.68784904 -0.36634445 C119.51120848 -0.55735123 137.62577698 1.85934427 157.68774414 13.19287109 C159.18241211 14.02625 159.18241211 14.02625 160.70727539 14.87646484 C182.03013634 27.59696987 197.64441841 49.63229104 203.75024414 73.56787109 C204.44581492 76.43370452 205.09315751 79.30447801 205.68774414 82.19287109 C205.94370173 83.32460644 205.94370173 83.32460644 206.20483017 84.47920513 C206.69854729 87.25357783 206.81920965 89.80551856 206.82818604 92.6217804 C206.83389618 93.69937119 206.83960632 94.77696198 206.8454895 95.88720703 C206.84660736 97.05968994 206.84772522 98.23217285 206.84887695 99.44018555 C206.85384186 100.68317917 206.85880676 101.92617279 206.86392212 103.20683289 C206.8760131 106.61247688 206.88348563 110.01805959 206.88793278 113.42371774 C206.8908723 115.55844842 206.89497899 117.69317383 206.89943695 119.82790184 C206.91310987 126.52667823 206.92277454 133.22544245 206.92663884 139.92423183 C206.93110328 147.61867833 206.94857645 155.31294575 206.97763944 163.00733787 C206.99939255 168.97706971 207.00935051 174.94675171 207.01067996 180.91652268 C207.01171936 184.47060083 207.01743826 188.02451064 207.03549957 191.57854652 C207.1221813 209.67091831 207.11354748 226.58984937 199.93774414 243.50537109 C199.58703857 244.35220459 199.23633301 245.19903809 198.875 246.0715332 C196.10703462 252.57884428 192.94573339 258.52465036 188.68774414 264.19287109 C188.02258789 265.08876953 187.35743164 265.98466797 186.67211914 266.90771484 C173.78476598 283.43412277 158.20592378 293.89288632 138.68774414 301.19287109 C137.80860352 301.53318359 136.92946289 301.87349609 136.02368164 302.22412109 C125.89815267 305.90613163 115.35422293 306.49185615 104.67749023 306.48339844 C102.8162854 306.49347427 102.8162854 306.49347427 100.91748047 306.50375366 C97.54924535 306.5193747 94.18125704 306.52610154 90.81300306 306.52738523 C88.69747486 306.52881788 86.58197167 306.5331083 84.46644974 306.53837967 C77.05403278 306.5568238 69.6416872 306.56505765 62.22924805 306.56347656 C55.3718784 306.56227773 48.51482478 306.58334361 41.65753496 306.61496389 C35.72753434 306.64131199 29.79763573 306.65183613 23.8675772 306.65056574 C20.34479522 306.65006137 16.82229447 306.65544723 13.29957199 306.67692184 C-6.43528851 306.78887287 -24.3039367 306.03733889 -42.31225586 297.19287109 C-43.93067383 296.40396484 -43.93067383 296.40396484 -45.58178711 295.59912109 C-52.88469017 291.85840241 -59.12030997 287.5536833 -65.31225586 282.19287109 C-66.43374023 281.28794922 -66.43374023 281.28794922 -67.57788086 280.36474609 C-84.44145492 266.33142222 -97.25429605 243.15919913 -99.31225586 221.19287109 C-99.47239965 216.75439636 -99.47971237 212.31750787 -99.48925781 207.87646484 C-99.49553241 206.53032765 -99.50218008 205.18419214 -99.50917053 203.83805847 C-99.53010121 199.43550802 -99.54056509 195.03295767 -99.55053711 190.63037109 C-99.55458928 189.10675032 -99.55870633 187.58312971 -99.56288719 186.05950928 C-99.5819176 178.8956867 -99.59615107 171.73187427 -99.60449916 164.56803131 C-99.61425277 156.33699605 -99.64053202 148.10623104 -99.68100005 139.87529087 C-99.71130794 133.4885541 -99.72598198 127.10189414 -99.72928017 120.71508694 C-99.73161464 116.91230161 -99.74036262 113.10980565 -99.76574135 109.30709839 C-99.78928492 105.72167109 -99.79315196 102.13671831 -99.78297997 98.55123329 C-99.78226055 96.63495899 -99.8011666 94.71870734 -99.82104492 92.80253601 C-99.66125373 65.64672336 -85.4272318 43.33334541 -66.84350586 24.72021484 C-48.08580259 6.96738854 -25.25070992 0.08813948 0 0 Z " fill="#000000" transform="translate(549.312255859375,358.80712890625)"/>
<path d="M0 0 C11.17934953 9.68455891 19.01354953 20.58324761 23 35 C23.34546875 35.83660156 23.6909375 36.67320312 24.046875 37.53515625 C28.42837668 53.46299227 25.07198269 72.08334365 18 86.625 C7.26021537 105.28193356 -10.82421479 117.48482112 -31.22021484 123.51269531 C-43.86992696 126.82284801 -57.31435782 125.5507934 -70 123 C-70.00257813 124.258125 -70.00515625 125.51625 -70.0078125 126.8125 C-70.27849948 142.93974558 -73.13287142 157.07120187 -84.875 168.88671875 C-92.61912491 176.10146012 -101.7341995 180.48041364 -112.48046875 180.1875 C-121.26509872 179.5337601 -130.45744548 178.28713254 -137.62109375 172.74609375 C-143.44305417 165.37380959 -141.45688306 153.29925839 -140.5 144.5625 C-140.335 143.386875 -140.17 142.21125 -140 141 C-136.91008394 141.4681691 -134.6447504 142.17414196 -131.8125 143.5625 C-127.47071796 145.49006038 -122.64984276 146.03239516 -118 145 C-111.49267915 137.90378133 -111.84914705 128.38102155 -111.90234375 119.31689453 C-111.90380402 118.37138229 -111.90526428 117.42587006 -111.9067688 116.45170593 C-111.91055917 114.40994871 -111.9166591 112.36819472 -111.92483521 110.32645035 C-111.93763197 107.09953401 -111.94412216 103.87265889 -111.94897461 100.64572144 C-111.96037828 93.80546235 -111.97964678 86.96523753 -112 80.125 C-112.02356723 72.17798998 -112.04394675 64.23099888 -112.05593872 56.28396225 C-112.06244566 53.09692584 -112.07494897 49.90994782 -112.08764648 46.72293091 C-112.0912763 44.78420056 -112.09462837 42.84546966 -112.09765625 40.90673828 C-112.10282257 40.01430923 -112.10798889 39.12188019 -112.11331177 38.20240784 C-112.11349231 36.13459358 -112.0624772 34.0668702 -112 32 C-108.92354692 28.92354692 -101.18287781 29.83526452 -97.0625 29.8125 C-95.91910156 29.79832031 -94.77570313 29.78414063 -93.59765625 29.76953125 C-86.70029312 30.11527842 -79.85269424 31.14341322 -73 32 C-73 51.8 -73 71.6 -73 92 C-56.72551902 95.2548962 -41.95318999 96.36130684 -27.38671875 87.390625 C-19.66238142 81.87865925 -14.83471177 74.32761864 -13 65 C-11.49268555 51.31822272 -15.39253028 40.2827134 -23.77734375 29.5 C-35.11590311 16.74661162 -52.10577522 9.3489077 -69 8 C-88.46090378 6.94003948 -88.46090378 6.94003948 -107 12 C-108.51013672 12.63615234 -108.51013672 12.63615234 -110.05078125 13.28515625 C-123.83328126 19.57221788 -134.1095165 29.34667649 -140.4453125 43.1484375 C-144.10122001 53.09352855 -144.17010319 62.20404852 -140 72 C-138.42255386 74.66361952 -136.78470319 77.23587936 -135.01171875 79.7734375 C-134.51091797 80.87558594 -134.51091797 80.87558594 -134 82 C-135.73133151 86.45837399 -138.99902089 89.19319866 -142.4375 92.375 C-143.06060059 92.95209717 -143.68370117 93.52919434 -144.32568359 94.1237793 C-150.27611378 99.48706594 -156.69217118 105 -165 105 C-166.72948916 102.99205999 -168.05911776 101.17146041 -169.4375 98.9375 C-169.83001953 98.31496338 -170.22253906 97.69242676 -170.62695312 97.05102539 C-181.16050756 79.60319359 -182.51011915 57.69743487 -178.74609375 37.96875 C-173.3465761 16.4837583 -160.41564021 0.07450536 -141.62963867 -11.38598633 C-132.23725232 -16.89833681 -122.5352001 -20.34796725 -112 -23 C-111.30277832 -23.17789062 -110.60555664 -23.35578125 -109.88720703 -23.5390625 C-73.18634621 -32.39577012 -29.11875206 -24.71618212 0 0 Z " fill="#FCFCFC" transform="translate(680,435)"/>
</svg>
